<svg viewBox="0 0 54.8887 54.8887" xmlns="http://www.w3.org/2000/svg" xmlns:xlink="http://www.w3.org/1999/xlink" width="54.888672" height="54.888672" fill="none" customFrame="#000000">
	<path id="Vector" d="M27.4956 0.00195312L27.444 0.00195312C20.1654 0.00195312 13.1849 2.89337 8.03816 8.04011C2.89141 13.1869 9.05942e-15 20.1673 0 27.4459C5.86198e-15 34.7246 2.89141 41.705 8.03816 46.8518C13.1849 51.9985 20.1654 54.8899 27.444 54.8899C27.6827 54.8899 27.9116 54.7951 28.0804 54.6263C28.2492 54.4576 28.344 54.2286 28.344 53.9899C28.344 53.7513 28.2492 53.5223 28.0804 53.3535C27.9116 53.1848 27.6827 53.0899 27.444 53.0899C20.6428 53.0899 14.1201 50.3882 9.31095 45.579C4.50177 40.7698 1.8 34.2472 1.8 27.4459C1.8 20.6447 4.50177 14.1221 9.31095 9.31291C14.1201 4.50372 20.6428 1.80195 27.444 1.80195L27.4926 1.80195C32.1746 1.81118 36.7647 3.10191 40.7654 5.53421C44.766 7.96652 48.0245 11.4476 50.1875 15.6C52.3506 19.7524 53.3356 24.4177 53.0359 29.0901C52.7361 33.7625 51.1631 38.2637 48.4872 42.1057C48.0914 42.6717 47.576 43.1438 46.9776 43.4886C46.3791 43.8333 45.7122 44.0423 45.024 44.1007C44.3222 44.1623 43.6154 44.0695 42.9534 43.8287C42.2913 43.5879 41.69 43.205 41.1918 42.7069L40.344 41.8561C40.6704 41.6611 40.9914 41.4529 41.304 41.2285C41.9343 40.7867 42.5247 40.2906 43.0686 39.7459L43.0716 39.7459C43.5352 39.2756 43.7942 38.6412 43.7923 37.9807C43.7904 37.3203 43.5277 36.6874 43.0614 36.2197L38.4006 31.5643C37.9322 31.0972 37.2978 30.8349 36.6363 30.8349C35.9748 30.8349 35.3403 31.0972 34.872 31.5643L34.176 32.258C33.9471 32.4851 33.6961 32.6887 33.4266 32.8658C32.5319 33.4443 31.4662 33.6994 30.4065 33.5889C29.3467 33.4783 28.3567 33.0087 27.6006 32.258L21.51 26.1674C20.9375 25.5893 20.6169 24.8083 20.618 23.9947C20.6191 23.1812 20.9419 22.401 21.516 21.8246L23.3256 20.0059C23.5579 19.7749 23.7422 19.5002 23.868 19.1977C23.9938 18.8952 24.0585 18.5708 24.0585 18.2432C24.0585 17.9155 23.9938 17.5911 23.868 17.2886C23.7422 16.9861 23.5579 16.7114 23.3256 16.4804L18.6726 11.828C18.4423 11.5941 18.1675 11.4086 17.8645 11.2824C17.5614 11.1562 17.2363 11.0918 16.908 11.093C16.282 11.0906 15.6785 11.3266 15.2202 11.753C15.1924 11.7747 15.166 11.7982 15.141 11.8232C14.6006 12.3642 14.1069 12.9499 13.665 13.574C11.9429 15.9747 11.036 18.8644 11.0775 21.8187C11.1189 24.7729 12.1066 27.6361 13.8954 29.9876C17.0365 34.1509 20.7437 37.855 24.9096 40.9928C27.3188 42.8187 30.2579 43.8088 33.2808 43.8127C35.1268 43.8107 36.9535 43.4362 38.6514 42.7118L39.9186 43.9807C40.6017 44.6663 41.4272 45.1931 42.3367 45.5239C43.2462 45.8547 44.2173 45.9813 45.1812 45.8947C46.1319 45.8134 47.053 45.5239 47.8794 45.047C48.7058 44.57 49.4172 43.9172 49.9632 43.1348C52.8274 39.0232 54.5113 34.2061 54.8323 29.2056C55.1534 24.2051 54.0993 19.2121 51.7844 14.7681C49.4696 10.324 45.9822 6.59855 41.7006 3.99557C37.4189 1.39259 32.5064 0.0114643 27.4956 0.00195312ZM25.9956 39.5551C21.9633 36.52 18.3748 32.9363 15.3342 28.9082C13.8897 27.0079 13.0437 24.7205 12.9041 22.3375C12.7646 19.9546 13.3377 17.5841 14.5506 15.5282L17.8824 18.8606C18.0512 19.0294 18.2802 19.1242 18.519 19.1242C18.7578 19.1242 18.9868 19.0294 19.1556 18.8606C19.3244 18.6917 19.4193 18.4627 19.4193 18.224C19.4193 17.9852 19.3244 17.7562 19.1556 17.5874L15.5946 14.024C15.8346 13.724 16.0866 13.4342 16.3572 13.1594C16.3813 13.1406 16.4043 13.1206 16.4262 13.0994C16.5572 12.9733 16.7321 12.9032 16.9138 12.9039C17.0956 12.9046 17.2699 12.976 17.4 13.103L22.056 17.759C22.1209 17.8235 22.1724 17.9002 22.2074 17.9848C22.2424 18.0694 22.2603 18.16 22.26 18.2516C22.2599 18.3418 22.2418 18.4311 22.2068 18.5142C22.1717 18.5973 22.1205 18.6727 22.056 18.7358L20.235 20.5622C19.3272 21.477 18.8179 22.7135 18.8179 24.0023C18.8179 25.291 19.3272 26.5275 20.235 27.4424L26.328 33.5305C27.287 34.4812 28.5191 35.1086 29.852 35.3249C31.1849 35.5413 32.5521 35.3358 33.7626 34.7371L37.4226 38.3971C37.5923 38.5611 37.8197 38.6518 38.0557 38.6498C38.2916 38.6477 38.5174 38.5531 38.6842 38.3862C38.8511 38.2193 38.9458 37.9936 38.9478 37.7576C38.9499 37.5216 38.8591 37.2943 38.6952 37.1245L35.268 33.6973C35.328 33.6422 35.3934 33.59 35.448 33.533L36.144 32.834C36.2746 32.7037 36.4515 32.6305 36.636 32.6305C36.8205 32.6305 36.9974 32.7037 37.128 32.834L41.7888 37.4893C41.9191 37.6199 41.9926 37.7965 41.9935 37.981C41.9944 38.1654 41.9226 38.3427 41.7936 38.4745C41.3221 38.9463 40.8102 39.3758 40.2636 39.7579C38.1763 41.2556 35.6637 42.0441 33.095 42.0076C30.5263 41.9711 28.0371 41.1115 25.9932 39.5551L25.9956 39.5551Z" fill="rgb(0,0,0)" fill-rule="nonzero" />
</svg>
